<?xml version="1.0" encoding="UTF-8"?>
<svg id="Layer_2" data-name="Layer 2" xmlns="http://www.w3.org/2000/svg" viewBox="0 0 18.18 18.18">
  <defs>
    <style>
      .cls-1 {
        fill: #2aa6c1;
        stroke-width: 0px;
      }
    </style>
  </defs>
  <g id="Layer_1-2" data-name="Layer 1">
    <path class="cls-1" d="m18.18,13.55v3.57c0,.53-.41.97-.94,1.01-.44.03-.8.05-1.08.05C7.23,18.18,0,10.94,0,2.02c0-.28.02-.64.05-1.08.04-.53.48-.94,1.01-.94h3.57c.26,0,.48.2.5.45.02.23.05.42.07.56.2,1.43.62,2.78,1.22,4.04.1.2.03.44-.15.57l-2.18,1.56c1.33,3.1,3.81,5.59,6.91,6.91l1.55-2.18c.13-.18.38-.25.58-.15,1.26.6,2.61,1.01,4.04,1.22.14.02.32.04.55.06.26.03.45.24.45.5Z"/>
  </g>
</svg>