<?xml version="1.0" encoding="UTF-8"?>
<svg id="Layer_2" data-name="Layer 2" xmlns="http://www.w3.org/2000/svg" viewBox="0 0 23.51 21">
  <defs>
    <style>
      .cls-1 {
        fill: #2aa6c1;
        stroke-width: 0px;
      }
    </style>
  </defs>
  <g id="Layer_1-2" data-name="Layer 1">
    <path class="cls-1" d="m20.31,19.93c0,.59-.48,1.07-1.07,1.07H4.28c-.59,0-1.07-.48-1.07-1.07v-9.62H0L11.04.28c.41-.37,1.03-.37,1.44,0l11.04,10.03h-3.21v9.62Zm-2.14-1.07v-10.52l-6.41-5.83-6.41,5.83v10.52h12.83Zm-6.41-2.14l-3.59-3.59c-.94-.94-.94-2.46,0-3.4.94-.94,2.46-.94,3.4,0l.19.19.19-.19c.94-.94,2.46-.94,3.4,0,.94.94.94,2.46,0,3.4l-3.59,3.59Z"/>
  </g>
</svg>