<?xml version="1.0" encoding="UTF-8"?>
<svg id="Layer_2" data-name="Layer 2" xmlns="http://www.w3.org/2000/svg" viewBox="0 0 17.4 21">
  <defs>
    <style>
      .cls-1 {
        fill: #2aa6c1;
        stroke-width: 0px;
      }
    </style>
  </defs>
  <g id="Layer_1-2" data-name="Layer 1">
    <path class="cls-1" d="m14.85,14.85l-6.15,6.15-6.15-6.15C-.85,11.45-.85,5.94,2.55,2.55,5.94-.85,11.45-.85,14.85,2.55c3.4,3.4,3.4,8.9,0,12.3Zm-6.15-2.28c2.14,0,3.87-1.73,3.87-3.87s-1.73-3.87-3.87-3.87-3.87,1.73-3.87,3.87,1.73,3.87,3.87,3.87Zm0-1.93c-1.07,0-1.93-.87-1.93-1.93s.87-1.93,1.93-1.93,1.93.87,1.93,1.93-.87,1.93-1.93,1.93Z"/>
  </g>
</svg>